<?xml version="1.0" encoding="UTF-8"?>
<svg xmlns="http://www.w3.org/2000/svg" xmlns:xlink="http://www.w3.org/1999/xlink" viewBox="0 0 567.52 162.23">
  <defs>
    <style>
      .cls-1 {
        fill: url(#linear-gradient);
      }

      .cls-1, .cls-2 {
        stroke-width: 0px;
      }

      .cls-2 {
        fill: #fff;
      }

      .cls-3 {
        fill: none;
        stroke: #fff;
        stroke-linecap: round;
        stroke-miterlimit: 10;
        stroke-width: 2px;
      }

      .cls-4 {
        mask: url(#mask);
      }
    </style>
    <mask id="mask" x="0" y="0" width="567.52" height="162.23" maskUnits="userSpaceOnUse">
      <g>
        <path class="cls-2" d="m488.55,93.4c-1.3.63-2.62,1.29-3.96,1.98l.46,5.88-1.85-5.15c-8.92,4.74-17.96,10.7-21.48,16.48l-2.83-7.34-1.26,9.12-3.58-4.11-1.38,5.68-2.29-7.59-2.14,10.87-3.75-4.57,1.01,6.85-4.83-4.06,1.56,4.64-4.26-1.11,3.08,3.18-4.21.3,1.7,4.17-4.4-.64s-.01,2.65,2.9,4.61c-5.48-.06-16.76-.24-31.72-.83-2.3,1.33-.05,3.29-.05,3.29,13.68,3.19,26.22,2.78,33.37,2.08l-.34,3.23s2.87-3.22,2.88-2.76.33,5.31.33,5.31l2.24-3.2,1.89,4.94,2.65-4.94,2.04,4.78,2.19-4.61,4.23,5.02.92-5.35,4.66,3.76-1.77-6.04,6.68,3.38s-3.17-6-2.36-5.24,9.66,3.59,9.66,3.59l-3.01-5.85c9.26-1.55,18.43-4.6,27.14-8.66l-6.27-3.61s5.95.98,9.63,1.98c1.6-.81,3.19-1.64,4.75-2.51l-7.61-3.13,10.74,1.34c25.4-15.09,44.49-37.99,45.22-54.83-22.21,23.74-56.21,24.63-66.6,29.67Z"/>
        <line class="cls-3" x1="12.37" y1="108.72" x2="432.92" y2="108.72"/>
        <path class="cls-2" d="m67.39,51.33l5.39,2.02c-.13.36-.37.67-.73.94s-.93.45-1.72.55v43.74c-.05.2-.57.5-1.55.88s-2.18.73-3.61,1.03-2.83.46-4.2.46h-2.22v-38.35c-4.18,4.74-8.86,9.12-14.06,13.16-5.2,4.04-10.79,7.49-16.77,10.37l-.46-.61c3.9-3.21,7.58-6.78,11.06-10.72,3.48-3.93,6.65-8.06,9.51-12.38s5.32-8.65,7.35-13.01c2.04-4.36,3.55-8.54,4.55-12.57h-30.83l-.61-2.18h54.97l6.49-8.21c1.58,1.2,2.98,2.26,4.2,3.19,1.22.93,2.5,1.92,3.84,2.98,1.34,1.06,2.55,2.04,3.65,2.96-.23.84-1.02,1.26-2.37,1.26h-24.33c-1.99,4.92-4.51,9.74-7.56,14.48Zm4.74,6.04l.65-.57c6.19.89,11.26,2.21,15.2,3.95,3.95,1.74,6.97,3.67,9.05,5.79,2.09,2.11,3.41,4.18,3.95,6.21s.5,3.78-.15,5.27-1.74,2.48-3.29,2.96-3.33.23-5.37-.76c-1.4-2.7-3.2-5.44-5.39-8.23s-4.57-5.44-7.12-7.97-5.07-4.74-7.54-6.65Z"/>
        <path class="cls-2" d="m120.11,76.49l.64-.22c2.49,1.42,4.4,2.92,5.72,4.5,1.32,1.58,2.19,3.12,2.59,4.62s.46,2.83.17,4.01-.83,2.08-1.61,2.73-1.67.91-2.69.8-2.03-.73-3.05-1.86c.02-.39.04-.78.07-1.18s.04-.8.04-1.21c-1.72.94-3.65,1.95-5.81,3.04s-4.48,2.18-6.97,3.28c-.44.67-.97,1.14-1.58,1.41l-4.27-10.06c.63-.13,1.14-.26,1.52-.39.39-.13.67-.28.86-.44.59-.63,1.22-1.58,1.88-2.87.67-1.28,1.31-2.73,1.93-4.32.62-1.6,1.17-3.2,1.65-4.81s.83-3.06,1.05-4.35h-8.29l-.44-1.61h18.46l3.8-5.1c.92.76,1.75,1.43,2.47,2.02.72.59,1.47,1.22,2.26,1.9.79.68,1.5,1.3,2.15,1.87-.17.61-.7.91-1.61.91h-17.07l8.9,2.72c-.11.28-.31.53-.6.75s-.69.35-1.21.39c-1,1.53-2.2,3.15-3.62,4.84-1.41,1.69-2.9,3.31-4.46,4.86s-3.07,2.9-4.53,4.05c1.7-.15,3.7-.33,6.01-.55s4.76-.45,7.35-.69c-.15-1.59-.38-3.15-.69-4.68-.31-1.53-.66-2.98-1.03-4.35Zm7.84-19.71h-21.76l-.44-1.58h13.11l3.8-5.1c.94.74,1.77,1.41,2.49,2.01.72.6,1.47,1.23,2.25,1.9s1.49,1.29,2.13,1.88c-.17.59-.69.89-1.58.89Zm23.62,1.61l6.62,5.9c-.22.24-.53.46-.93.65s-.92.36-1.57.49c-.13,5.78-.29,10.63-.49,14.55-.19,3.92-.46,7.11-.8,9.59s-.79,4.43-1.34,5.85-1.25,2.53-2.08,3.33c-2,1.88-4.68,2.83-8.07,2.83,0-1.28-.06-2.36-.17-3.24s-.33-1.58-.67-2.08c-.43-.61-.98-1.13-1.68-1.55s-1.59-.79-2.7-1.08l.06-.67c.85.07,1.82.14,2.91.19s1.94.08,2.55.08c.74,0,1.36-.22,1.86-.67.65-.57,1.16-1.92,1.55-4.05s.69-5.19.91-9.19c.22-4,.41-9.1.55-15.29h-5.74c-.11,4.36-.43,8.41-.96,12.15s-1.49,7.18-2.9,10.32-3.45,6-6.13,8.58-6.23,4.89-10.64,6.94l-.5-.75c2.83-2.4,5.1-4.95,6.82-7.64s3.03-5.56,3.94-8.62,1.52-6.33,1.86-9.81c.33-3.48.52-7.21.55-11.18h-5.85l-.5-1.58h6.35c0-2.24,0-4.55-.03-6.94-.02-2.39-.03-4.88-.03-7.47l10.34.91c-.17.89-.89,1.43-2.16,1.64-.04,2.11-.06,4.14-.07,6.11s-.02,3.89-.04,5.75h5.04l4.1-4.07Z"/>
        <path class="cls-2" d="m216.17,59.82l8.04,7.16c-.26.32-.62.6-1.09.84-.46.24-1.1.42-1.9.55-.11,6.96-.26,12.92-.45,17.87-.19,4.96-.48,9.09-.84,12.4-.37,3.31-.86,5.95-1.49,7.92s-1.43,3.47-2.4,4.49c-1.3,1.3-2.77,2.24-4.41,2.82s-3.71.88-6.19.88c0-1.56-.12-2.88-.36-3.99s-.66-1.98-1.26-2.63c-1.32-1.53-3.71-2.67-7.16-3.4l.06-.78c1.06.09,2.21.17,3.45.24s2.4.14,3.48.19,1.91.08,2.5.08c.99,0,1.81-.29,2.46-.88,1.19-1.06,2-4.65,2.43-10.78.43-6.13.75-14.83.94-26.11h-10.21c-3.44,5.66-7.49,10.33-12.15,14l-.39-.26v26.87c-.02.19-.44.49-1.26.89s-1.81.76-2.97,1.09-2.25.49-3.29.49h-1.46v-5.25h-8.17v4.57c0,.35-.33.76-1,1.23s-1.55.9-2.64,1.28-2.28.57-3.58.57h-1.39v-50.72l8.36,3.44c.17-1.86.32-3.97.45-6.34s.25-4.5.36-6.4l12.8,3.05c-.3,1.12-1.25,1.69-2.85,1.69-.99,1.15-2.17,2.48-3.53,4s-2.64,2.93-3.82,4.23h4.38l4.12-4.6,8.17,6.45c-.52.65-1.4,1.13-2.66,1.46v11.08c1.04-2.35,2.06-5.04,3.06-8.07,1-3.02,1.92-6.2,2.74-9.53.82-3.33,1.47-6.62,1.94-9.88l12.35,3.6c-.28.93-1.17,1.39-2.66,1.39-1.08,2.7-2.33,5.3-3.76,7.81h8.3l4.96-5.02Zm-35.91,7.16h-8.17v16.46h8.17v-16.46Zm-8.17,35.72h8.17v-17.4h-8.17v17.4Zm21.39-24.05l.52-.32c3.5.8,6.22,1.86,8.17,3.18,1.94,1.32,3.27,2.71,3.99,4.18.71,1.47.95,2.85.71,4.13-.24,1.29-.81,2.33-1.72,3.13-.91.8-2.01,1.19-3.31,1.18-1.3-.01-2.63-.61-3.99-1.8-.06-2.38-.52-4.78-1.36-7.23-.84-2.44-1.85-4.59-3.01-6.45Z"/>
        <path class="cls-2" d="m284.46,54.71h-24.73c.7,3.86,2.09,7.62,4.15,11.27,2.07,3.65,4.97,7,8.71,10.06,3.74,3.06,8.46,5.64,14.16,7.75l-.06.77c-4.71.95-7.44,4.06-8.18,9.33-3.35-2.15-6.17-4.67-8.48-7.56s-4.2-5.99-5.69-9.3c-1.49-3.31-2.66-6.67-3.5-10.09-.85-3.42-1.48-6.71-1.89-9.87-.52,3.82-1.38,7.48-2.6,10.97-1.22,3.49-3.02,6.79-5.41,9.9-2.39,3.11-5.55,6-9.48,8.66s-8.87,5.09-14.8,7.28l-.53-.84c4.32-2.77,7.9-5.64,10.75-8.62,2.85-2.98,5.13-6.05,6.83-9.24,1.7-3.18,2.98-6.48,3.83-9.89.85-3.41,1.44-6.94,1.77-10.6h-22.1l-.5-1.77h22.72c.19-3.02.28-6.12.29-9.3.01-3.18.02-6.46.02-9.82l12.65,1.15c-.1.52-.33.92-.68,1.21-.35.29-.91.5-1.67.62-.06,2.81-.13,5.56-.2,8.24-.07,2.69-.22,5.32-.45,7.9h12.27l5.27-6.66c1.26.95,2.39,1.81,3.38,2.57.99.76,2.03,1.58,3.11,2.43,1.08.86,2.07,1.66,2.96,2.4-.19.68-.83,1.02-1.92,1.02Z"/>
        <path class="cls-2" d="m349.41,27.84l9.8,7.87c-.27.35-.65.67-1.14.97s-1.12.54-1.92.71v58.56c-.02.25-.53.65-1.51,1.19s-2.19,1.04-3.62,1.49-2.83.67-4.19.67h-1.75v-6.04h-40.56v2.39c0,.45-.43.99-1.29,1.64s-1.97,1.21-3.34,1.7-2.82.73-4.36.73h-1.86V28.85l11.7,4.66h38.92l5.11-5.67Zm-35.86,7.79h-9.02v34c3.13-1.32,6.08-2.85,8.83-4.6s5.29-3.68,7.6-5.8c-1.04-1.19-2.02-2.46-2.93-3.8s-1.75-2.77-2.52-4.29c-1.42,1.52-2.93,3-4.53,4.44-1.6,1.44-3.25,2.71-4.94,3.8l-.6-.82c1.29-2.11,2.49-4.53,3.58-7.25,1.09-2.72,2.03-5.46,2.81-8.22s1.35-5.24,1.7-7.46Zm-9.02,55.51h40.56v-29.52c-3.28,1.22-5.39,4.06-6.34,8.54-2.56-.92-4.96-1.95-7.21-3.09-2.25-1.14-4.33-2.45-6.24-3.91-2.88,1.67-6.04,3.14-9.47,4.42-3.43,1.28-7.1,2.32-11,3.11l-.3-.67v21.14Zm7.42-11.59l.15-.93c5.29-.92,9.69-1.24,13.2-.95,3.5.29,6.24.93,8.22,1.94s3.32,2.16,4.03,3.47.9,2.55.58,3.75-1.04,2.11-2.14,2.74-2.45.75-4.04.35c-1.09-.94-2.63-2.04-4.62-3.3s-4.29-2.51-6.91-3.76-5.44-2.35-8.44-3.3Zm33.14-43.91h-30.01l10.29,4.36c-.27.7-1.08.98-2.42.86-.32.6-.66,1.21-1.01,1.83-.35.62-.76,1.25-1.23,1.9h9.8l5.26-4.88,8.39,7.23c-.27.42-.62.71-1.04.88-.42.16-1.09.28-2.01.35-2.21,3.68-5.03,6.96-8.46,9.84,2.01.57,4.06,1.06,6.15,1.45,2.09.4,4.19.71,6.3.93v-24.75Zm-14.58,11.07h-11.33c-.32.5-.68.98-1.06,1.45-.39.47-.79.96-1.21,1.45,1.07,1.12,2.28,2.14,3.63,3.06,1.35.92,2.81,1.77,4.38,2.53,2.24-2.61,4.1-5.44,5.59-8.5Zm-13.31,21.25l.37-1.01c3.58-.5,6.47-.54,8.69-.13s3.86,1.09,4.96,2.03c1.09.95,1.73,1.96,1.9,3.06.17,1.09,0,2.1-.54,3.02-.53.92-1.32,1.57-2.35,1.96-1.03.39-2.19.3-3.49-.24-.6-1.14-1.73-2.55-3.39-4.23s-3.72-3.16-6.15-4.45Z"/>
        <path class="cls-2" d="m427.55,58.56l9.43,7.87c-.3.32-.68.62-1.14.88s-1.09.44-1.88.54c-.25,5.05-.58,9.21-1.01,12.51-.42,3.29-1.03,5.9-1.83,7.81s-1.86,3.34-3.21,4.29c-1.27.92-2.74,1.61-4.42,2.07s-3.85.69-6.5.69c.02-1.62-.06-3.05-.26-4.31s-.65-2.27-1.34-3.04c-1.54-1.69-4.04-2.91-7.49-3.65l.07-.78c1.04.07,2.22.15,3.54.22s2.55.14,3.69.19,1.96.07,2.46.07c1.02,0,1.76-.21,2.24-.63.72-.6,1.29-2.34,1.7-5.24.41-2.89.73-6.93.95-12.1h-19.46v29.49c0,.37-.49.89-1.47,1.55s-2.22,1.25-3.71,1.77-2.97.78-4.44.78h-2.27v-33.59h-23.6l-.71-2.12h24.3v-16.89h-18.12l-.67-2.12h18.79v-17.41l14.43,1.38c-.07.45-.27.85-.6,1.21-.32.36-.97.62-1.94.76v14.05h8.65l4.1-4.88,10.25,7.34c-.32.32-.68.58-1.06.76s-.98.35-1.77.5l-1.16,15.06,5.44-5.03Zm-24.45-11.63v16.89h7.94l1.3-16.89h-9.24Zm10.33-16.18l.45-.45c4.82-.27,8.75.02,11.8.88s5.34,2.01,6.88,3.47,2.45,2.98,2.74,4.59.07,3.04-.63,4.32c-.71,1.28-1.79,2.16-3.24,2.65s-3.15.33-5.09-.47c-.92-1.84-2.09-3.68-3.52-5.54-1.43-1.85-2.96-3.6-4.6-5.24s-3.23-3.04-4.77-4.21Z"/>
        <path class="cls-2" d="m506.01,33.51l8.83,8.39c-.3.35-.65.58-1.06.71-.41.13-1.01.22-1.81.3-1.04.84-2.29,1.81-3.75,2.89s-2.83,2.02-4.12,2.81l5.26,3.99c-.22.27-.57.55-1.04.82-.47.27-1.07.48-1.79.63v13.9c-.02.17-.5.43-1.44.76s-2.04.65-3.32.93c-1.28.29-2.44.43-3.49.43h-1.75v-3.65h-12.15v8.69h13.98l4.44-4.73,9.1,6.78c-.2.27-.53.56-.99.86s-1.05.5-1.77.6v16.89c0,.22-.45.55-1.36.99s-2,.84-3.28,1.21-2.48.56-3.6.56h-1.75v-5.07h-14.76v2.91c0,.4-.41.87-1.23,1.42s-1.89,1.03-3.21,1.45-2.71.63-4.18.63h-1.6v-49.21c-1.19.45-2.46.39-3.8-.17s-2.24-1.61-2.68-3.15c-1.12,1.27-2.32,2.52-3.6,3.76-1.28,1.24-2.53,2.29-3.75,3.13h-.89c.4-1.47.78-3.29,1.16-5.48.37-2.19.67-4.15.89-5.89h-7.94c-1.64,3.35-3.47,6.64-5.48,9.86-2.01,3.22-4.19,6.08-6.52,8.59l-.67-.37c.7-2.11,1.37-4.56,2.01-7.34.65-2.78,1.24-5.7,1.79-8.76.55-3.06,1.03-6.09,1.44-9.1.41-3.01.73-5.8.95-8.39l14.28,3.35c-.15.42-.42.74-.82.95-.4.21-1.09.28-2.09.21-.57,1.42-1.17,2.87-1.79,4.34-.62,1.48-1.29,2.98-2.01,4.49h6.23l4.51-4.66,5.74,4.96.45-.22c.65-.6,1.23-1.47,1.75-2.63s.55-2.32.07-3.49l1.01-.07c.42.77.8,1.5,1.14,2.2.34.7.62,1.39.84,2.09h10.85c-.45-.27-.86-.55-1.23-.82-.02-1.99-.4-3.98-1.14-5.96-.73-1.99-1.57-3.67-2.52-5.03l.52-.41c3.78.32,6.67,1.01,8.69,2.05s3.34,2.22,3.99,3.54c.65,1.32.77,2.58.37,3.78-.4,1.21-1.13,2.16-2.2,2.85h7.19l5.11-5.11Zm-46.26,23.04v26.88c1.64-.65,3.34-1.34,5.11-2.07s3.54-1.46,5.33-2.18l.34.67c-1.39,1.62-3.37,3.81-5.93,6.6s-5.58,5.78-9.06,8.98c-.37,1.02-.86,1.86-1.45,2.53s-1.21,1.17-1.83,1.49l-6.04-11.15c1.57-.82,2.56-1.52,2.98-2.09s.63-1.29.63-2.16v-30.08l11.59,1.12c-.1.77-.66,1.25-1.68,1.45Zm40.45-10.81l2.53,1.83-.78-6.82h-24.94c.6,2.59.57,4.78-.07,6.6l7.87,3.13h10.96l4.44-4.73Zm-15.81,18.53h12.15v-11.67h-12.15v11.67Zm14.76,12.97h-14.76v13.83h14.76v-13.83Z"/>
      </g>
    </mask>
    <linearGradient id="linear-gradient" x1="389.82" y1="-102.59" x2="177.7" y2="264.82" gradientTransform="translate(567.52 162.23) rotate(180)" gradientUnits="userSpaceOnUse">
      <stop offset=".31" stop-color="#fff33b"/>
      <stop offset=".31" stop-color="#fef139"/>
      <stop offset=".42" stop-color="#fed319"/>
      <stop offset=".48" stop-color="#fec80d"/>
      <stop offset=".53" stop-color="#f9b120"/>
      <stop offset=".59" stop-color="#f59f31"/>
      <stop offset=".65" stop-color="#f3933b"/>
      <stop offset=".71" stop-color="#f3903f"/>
      <stop offset=".82" stop-color="#ed683c"/>
      <stop offset=".96" stop-color="#e93e3a"/>
    </linearGradient>
  </defs>
  <g>
    <g class="cls-4">
      <rect class="cls-1" x="0" y="0" width="567.52" height="162.23" transform="translate(567.52 162.23) rotate(-180)"/>
    </g>
  </g>
</svg>